#define down_left_width 16
#define down_left_height 16
static unsigned char down_left_bits[] = {
   0x00, 0x00, 0x00, 0x00, 0x00, 0x00, 0x00, 0x30, 0x00, 0x18, 0x00, 0x0c,
   0x00, 0x06, 0x10, 0x03, 0x90, 0x01, 0xd0, 0x00, 0x70, 0x00, 0xf0, 0x03,
   0x10, 0x00, 0x00, 0x00, 0x00, 0x00, 0x00, 0x00 };
