#define up_right_width 16
#define up_right_height 16
static unsigned char up_right_bits[] = {
   0x00, 0x00, 0x00, 0x00, 0x00, 0x00, 0x00, 0x08, 0xc0, 0x0f, 0x00, 0x0e,
   0x00, 0x0b, 0x80, 0x09, 0xc0, 0x08, 0x60, 0x00, 0x30, 0x00, 0x18, 0x00,
   0x0c, 0x00, 0x00, 0x00, 0x00, 0x00, 0x00, 0x00 };
